<?xml version="1.0" encoding="UTF-8" standalone="no"?>
<!DOCTYPE svg PUBLIC "-//W3C//DTD SVG 1.1//EN" "http://www.w3.org/Graphics/SVG/1.1/DTD/svg11.dtd">
<svg width="100%" height="100%" viewBox="0 0 100 125" version="1.1" xmlns="http://www.w3.org/2000/svg" xmlns:xlink="http://www.w3.org/1999/xlink" xml:space="preserve" xmlns:serif="http://www.serif.com/" style="fill-rule:evenodd;clip-rule:evenodd;stroke-linejoin:round;stroke-miterlimit:2;">
    <g transform="matrix(0.999284,-0.0378121,0.0443985,1.17335,-4.01296,-10.363)">
        <path d="M94.427,61.858C94.427,61.871 94.435,61.881 94.436,61.903C94.453,62.268 94.447,62.628 94.432,62.983C94.43,62.995 94.432,63.005 94.432,63.017C94.43,63.039 94.426,63.062 94.426,63.083C94.203,67.485 91.782,71.185 89.687,73.588C87.092,76.562 83.938,78.996 79.761,81.246C78.39,81.986 76.939,82.645 75.456,83.261C75.363,83.301 75.271,83.344 75.175,83.383C75.133,83.401 75.089,83.415 75.048,83.432C74.527,83.644 74.001,83.85 73.468,84.044C73.014,84.213 72.553,84.369 72.091,84.525C71.57,84.701 71.047,84.87 70.52,85.03C69.905,85.217 69.286,85.393 68.663,85.558C68.391,85.63 68.117,85.704 67.845,85.771C67.703,85.807 67.566,85.847 67.424,85.88C66.697,86.056 65.963,86.211 65.23,86.355C65.065,86.387 64.903,86.414 64.738,86.445C63.929,86.595 63.121,86.727 62.314,86.839C62.137,86.864 61.961,86.892 61.783,86.915C61.039,87.011 60.297,87.095 59.557,87.157C59.417,87.168 59.278,87.173 59.138,87.184C58.896,87.203 58.656,87.217 58.415,87.232C57.612,87.283 56.807,87.317 56.004,87.328C55.916,87.329 55.827,87.338 55.741,87.339L55.735,87.339C55.728,87.339 55.724,87.336 55.718,87.336C55.678,87.336 55.639,87.339 55.599,87.339L55.401,87.339C54.197,87.339 52.994,87.293 51.819,87.202C47.052,86.838 42.53,87.521 37.745,88.245L37.279,88.315C37.275,88.316 37.27,88.315 37.265,88.316C35.758,88.565 33.923,88.816 31.911,88.994C31.903,88.995 31.897,89 31.889,89.001C31.667,89.02 31.445,89.037 31.222,89.054C31.174,89.058 31.127,89.063 31.079,89.066C31.044,89.069 31.01,89.072 30.976,89.074C30.958,89.076 30.94,89.077 30.921,89.077C29.569,89.176 28.15,89.238 26.701,89.238C22.835,89.238 18.776,88.791 15.254,87.498C15.165,87.465 15.075,87.433 14.988,87.4C14.698,87.288 14.411,87.173 14.129,87.05C14.054,87.018 13.973,86.99 13.899,86.956C13.666,86.854 13.448,86.737 13.225,86.626C13.129,86.578 13.027,86.54 12.933,86.489C12.925,86.485 12.921,86.478 12.914,86.473C12.534,86.274 12.168,86.064 11.824,85.843L11.821,85.84C11.796,85.824 11.757,85.799 11.752,85.796C11.741,85.789 11.734,85.776 11.723,85.768C11.671,85.738 11.618,85.708 11.569,85.677C11.568,85.677 11.566,85.677 11.566,85.676C9.656,84.449 8.325,82.934 7.589,81.169C7.569,81.121 7.55,81.073 7.531,81.023C7.492,80.925 7.447,80.831 7.412,80.731C7.399,80.695 7.404,80.659 7.397,80.624C7.33,80.43 7.253,80.24 7.203,80.043C6.767,78.347 6.31,76.658 5.832,74.973C5.831,74.969 5.832,74.964 5.831,74.959C5.827,74.946 5.82,74.934 5.817,74.92C5.784,74.804 5.783,74.687 5.802,74.575C5.728,74.292 5.665,74.006 5.626,73.716C5.575,73.346 5.55,72.953 5.555,72.553C5.564,71.882 5.663,71.187 5.839,70.483C5.841,70.468 5.836,70.457 5.839,70.442C5.84,70.435 5.845,70.424 5.847,70.416C5.848,70.41 5.847,70.405 5.848,70.4C5.852,70.382 5.862,70.357 5.871,70.334C5.872,70.331 5.872,70.328 5.873,70.325C5.873,70.324 5.874,70.32 5.874,70.319C5.879,70.306 5.882,70.296 5.887,70.283C6.082,69.56 6.352,68.844 6.72,68.096C6.721,68.095 6.754,68.029 6.754,68.028C6.76,68.016 6.772,68.008 6.779,67.996C6.805,67.942 6.822,67.89 6.848,67.836C7.025,67.476 7.22,67.122 7.426,66.771L7.469,66.698C7.471,66.694 7.475,66.692 7.477,66.688C10.283,61.976 15.579,58.145 19.774,55.655C19.788,55.647 19.801,55.639 19.815,55.631C19.883,55.589 19.955,55.546 20.023,55.506C20.03,55.501 20.04,55.501 20.048,55.497C20.559,55.196 21.077,54.898 21.606,54.606C22.751,53.977 23.957,53.359 25.189,52.772C30.235,50.367 34.02,48.073 36.76,45.758C36.761,45.757 36.761,45.757 36.762,45.756C37.529,45.108 38.346,44.484 39.185,43.876C39.201,43.862 39.209,43.843 39.227,43.83L39.421,43.69C39.436,43.68 39.452,43.679 39.467,43.67C42.026,41.844 44.889,40.209 47.939,38.809C47.968,38.795 47.998,38.782 48.028,38.768C48.851,38.391 49.686,38.029 50.535,37.688C50.579,37.67 50.62,37.649 50.664,37.632C50.68,37.625 50.696,37.62 50.712,37.614C51.589,37.265 52.478,36.937 53.374,36.628C53.56,36.564 53.745,36.505 53.931,36.443C54.67,36.197 55.411,35.964 56.159,35.746C56.282,35.71 56.405,35.666 56.528,35.631C56.594,35.611 56.664,35.597 56.732,35.578C57.599,35.334 58.472,35.105 59.347,34.901C59.442,34.879 59.536,34.861 59.63,34.839C60.407,34.662 61.187,34.503 61.966,34.359C62.076,34.338 62.185,34.311 62.296,34.291C62.416,34.269 62.535,34.257 62.656,34.236C63.411,34.105 64.17,33.99 64.927,33.891C65.052,33.875 65.179,33.855 65.304,33.839C66.096,33.742 66.885,33.658 67.671,33.597C67.69,33.595 67.706,33.604 67.725,33.604C67.844,33.594 67.965,33.577 68.081,33.569C69.924,33.441 71.731,33.417 73.46,33.501C75.237,33.585 76.948,33.783 78.549,34.087C79.374,34.243 80.176,34.429 80.935,34.64C81.469,34.788 81.983,34.964 82.492,35.141C82.521,35.148 82.551,35.142 82.58,35.153C82.677,35.186 82.767,35.224 82.863,35.259C82.897,35.271 82.932,35.28 82.965,35.292C83.064,35.328 83.157,35.37 83.255,35.407C83.472,35.491 83.687,35.575 83.897,35.663C84.036,35.721 84.17,35.782 84.306,35.842C84.524,35.939 84.743,36.038 84.955,36.141C84.993,36.159 85.032,36.175 85.07,36.194C85.101,36.209 85.128,36.228 85.159,36.244C85.735,36.532 86.287,36.839 86.804,37.169C86.806,37.169 86.806,37.17 86.806,37.17C86.813,37.173 86.817,37.176 86.821,37.179C87.958,37.904 88.956,38.724 89.803,39.641L89.803,39.643C89.805,39.644 89.809,39.646 89.809,39.648C89.811,39.65 89.811,39.652 89.813,39.654C89.816,39.656 89.818,39.657 89.818,39.658C89.82,39.66 89.82,39.662 89.822,39.664C89.824,39.667 89.828,39.668 89.83,39.671C89.854,39.696 89.861,39.727 89.881,39.754C90.337,40.264 90.752,40.802 91.11,41.364C91.503,41.986 91.836,42.641 92.104,43.313C92.376,44.001 92.584,44.723 92.724,45.459C92.734,45.515 92.738,45.574 92.747,45.631C92.805,45.723 92.846,45.826 92.863,45.94L92.793,45.951C92.795,45.972 92.797,45.994 92.801,46.015L92.876,46.01L92.804,46.028C92.883,46.601 92.937,47.183 92.939,47.777C92.939,47.79 92.937,47.804 92.937,47.816C92.985,47.922 93.018,48.036 93.016,48.16C93.014,48.197 93.01,48.236 93.008,48.273C93.008,48.283 93.014,48.292 93.014,48.303C92.961,52.076 93.264,55.511 93.95,58.803C94.009,59.088 94.072,59.37 94.136,59.653L94.136,59.658C94.14,59.674 94.142,59.687 94.147,59.702L94.147,59.708C94.149,59.712 94.151,59.719 94.151,59.721L94.151,59.723C94.195,59.922 94.232,60.122 94.265,60.323L94.278,60.38L94.278,60.384C94.28,60.396 94.282,60.406 94.285,60.417C94.287,60.427 94.289,60.44 94.291,60.448L94.291,60.452C94.365,60.914 94.406,61.384 94.427,61.858ZM92.828,62.966C92.83,62.95 92.83,62.934 92.831,62.919C92.864,62.173 92.825,61.432 92.71,60.715C92.71,60.709 92.708,60.702 92.708,60.696L92.388,59.148C92.386,59.141 92.383,59.133 92.383,59.126C92.058,57.563 91.825,55.964 91.662,54.322C91.274,55.282 90.802,56.264 90.249,57.243C89.674,58.268 89.003,59.307 88.262,60.331C87.509,61.372 86.658,62.429 85.734,63.473C84.809,64.52 83.78,65.582 82.679,66.629C81.578,67.676 80.38,68.728 79.121,69.752C77.971,70.687 76.762,71.61 75.524,72.495C74.113,73.503 72.636,74.486 71.133,75.42C69.764,76.27 68.334,77.105 66.88,77.901C65.437,78.692 63.931,79.467 62.401,80.203C60.703,81.021 58.962,81.798 57.231,82.511C55.685,83.149 54.086,83.762 52.48,84.33C51.296,84.749 50.106,85.136 48.918,85.505C49.919,85.499 50.925,85.521 51.938,85.598C53.134,85.692 54.367,85.734 55.589,85.73C55.716,85.729 55.845,85.722 55.974,85.72C56.752,85.71 57.534,85.677 58.319,85.627C58.55,85.612 58.784,85.599 59.015,85.581C59.861,85.515 60.709,85.43 61.557,85.321C61.755,85.296 61.951,85.264 62.147,85.237C62.884,85.134 63.621,85.014 64.354,84.879C64.558,84.841 64.76,84.808 64.962,84.768C65.777,84.608 66.587,84.423 67.396,84.226C67.709,84.149 68.02,84.065 68.332,83.983C68.87,83.839 69.405,83.685 69.939,83.525C70.572,83.334 71.2,83.132 71.823,82.917C72.175,82.798 72.527,82.678 72.873,82.551C73.413,82.353 73.947,82.147 74.474,81.931C74.57,81.892 74.665,81.85 74.761,81.81C77.023,80.871 79.161,79.786 81.113,78.581C82.127,77.954 83.095,77.294 83.991,76.618C84.898,75.934 85.752,75.22 86.532,74.496C87.313,73.766 88.037,73.011 88.682,72.253C89.324,71.5 89.903,70.719 90.41,69.934C90.909,69.153 91.337,68.36 91.681,67.58C92.028,66.802 92.299,66.013 92.49,65.235C92.678,64.476 92.791,63.713 92.828,62.966ZM39.607,52.64C46.393,50.591 53.396,49.384 60.042,49.132C65.616,48.923 75.792,49.259 82.677,53.654C83.857,51.675 84.692,49.531 84.675,47.418C84.663,45.513 83.953,43.885 82.565,42.581C82.562,42.581 82.562,42.579 82.562,42.579C82.558,42.575 82.556,42.57 82.554,42.566C82.55,42.562 82.543,42.56 82.539,42.557C82.153,42.198 81.713,41.862 81.23,41.558C80.709,41.229 80.124,40.931 79.49,40.669C78.854,40.407 78.162,40.18 77.433,39.994C76.705,39.808 75.92,39.658 75.097,39.547C74.28,39.438 73.414,39.368 72.521,39.339C71.626,39.308 70.692,39.32 69.746,39.373C67.893,39.475 65.953,39.729 63.982,40.127C61.906,40.546 59.794,41.123 57.701,41.843C55.655,42.549 53.622,43.394 51.663,44.352C49.745,45.29 47.886,46.345 46.135,47.487C44.348,48.653 42.663,49.919 41.127,51.248C40.601,51.704 40.097,52.169 39.607,52.64ZM60.097,50.747C52.673,51.024 44.792,52.52 37.29,55.067C35.814,56.77 34.581,58.533 33.622,60.31C33.588,60.375 33.551,60.438 33.517,60.504C33.346,60.827 33.191,61.15 33.04,61.473C32.778,62.039 32.523,62.609 32.305,63.202C32.274,63.288 32.228,63.364 32.174,63.43C31.626,65.142 31.293,66.976 31.337,68.887C31.338,68.894 31.339,68.901 31.339,68.908C31.34,68.913 31.341,68.921 31.342,68.929C32.232,70.456 33.433,71.878 34.934,73.148C36.163,74.145 37.465,74.99 38.91,75.723C39.122,75.829 39.337,75.933 39.555,76.036C39.726,76.116 39.896,76.197 40.071,76.274C40.373,76.408 40.682,76.534 40.992,76.659C41.161,76.727 41.324,76.797 41.498,76.862C41.635,76.915 41.78,76.963 41.92,77.014C42.614,77.265 43.341,77.503 44.108,77.725C50.986,75.789 57.833,73.023 64.056,69.586C69.337,66.668 73.461,63.755 77.034,60.416C78.427,59.117 80.271,57.209 81.8,55.015C75.005,50.707 64.432,50.588 60.097,50.747ZM7.663,70.444C6.985,73.133 7.756,75.399 9.953,77.179C11.654,78.554 14.219,79.587 17.37,80.169C23.131,81.235 29.579,80.646 33.974,79.965C36.384,79.591 38.828,79.09 41.278,78.486C41.147,78.438 41.013,78.392 40.885,78.344C40.853,78.331 40.82,78.321 40.788,78.308C40.679,78.267 40.574,78.218 40.466,78.174C40.097,78.028 39.734,77.878 39.383,77.722C39.222,77.649 39.067,77.574 38.908,77.5C38.652,77.381 38.397,77.26 38.149,77.134C38.024,77.071 37.893,77.013 37.77,76.95C36.894,76.493 36.057,75.995 35.28,75.472C34.441,74.908 33.653,74.298 32.937,73.657C32.224,73.021 31.569,72.343 30.99,71.643C30.412,70.942 29.899,70.209 29.463,69.462C29.028,68.713 28.66,67.934 28.37,67.146C28.083,66.366 27.866,65.562 27.722,64.752C27.722,64.751 27.721,64.75 27.721,64.748C27.721,64.747 27.719,64.74 27.719,64.738L27.719,64.733C27.716,64.714 27.71,64.686 27.707,64.665C27.707,64.664 27.706,64.662 27.706,64.661C27.705,64.657 27.705,64.652 27.704,64.648L27.704,64.645C27.57,63.855 27.502,63.038 27.505,62.217C27.508,61.397 27.581,60.562 27.723,59.734C27.855,58.964 28.046,58.185 28.293,57.419C28.559,56.593 28.895,55.757 29.293,54.938C29.686,54.124 30.152,53.301 30.677,52.492C30.946,52.077 31.238,51.663 31.541,51.251C29.85,52.227 27.974,53.208 25.879,54.207C24.675,54.781 23.497,55.384 22.378,55.999C21.218,56.637 20.099,57.302 19.046,57.975C18.978,58.019 18.91,58.062 18.842,58.106C18.378,58.406 17.925,58.71 17.483,59.016C17.391,59.08 17.297,59.146 17.204,59.211C16.751,59.529 16.307,59.85 15.883,60.171C15.855,60.193 15.825,60.217 15.796,60.239C14.94,60.892 14.128,61.562 13.385,62.232C12.607,62.934 11.923,63.615 11.292,64.313C10.664,65.008 10.1,65.711 9.619,66.399C9.129,67.099 8.731,67.77 8.402,68.449C8.078,69.118 7.831,69.781 7.667,70.424C7.665,70.431 7.664,70.438 7.663,70.444Z"/>
    </g>
</svg>
